# xmcd CD database file
#
# Track frame offsets:
#	150
#	51039
#	70407
#	92704
#	137005
#	179971
#	206062
#	236252
#	254204
#	276566
#	290923
#
# Disc length: 4236 seconds
#
# Revision: 0
# Processed by: cddbd v1.5.2PL0 Copyright (c) Steve Scherf et al.
# Submitted via: CDex 1.51
#
DISCID=be108a0b
DTITLE=Barney Kessel - Seven Classic Albums CD 1
DYEAR=1900
DGENRE=Jazz
TTITLE0=Let's Cook
TTITLE1=Time Remembered
TTITLE2=Just In Time
TTITLE3=Tiger Rag
TTITLE4=Jersey Bounce
TTITLE5=Swinging The Toreador
TTITLE6=A Pad On The Edge Of Town
TTITLE7=If You Dig Me
TTITLE8=Free As A Bird
TTITLE9=Viva El Toro!
TTITLE10=Flowersville
EXTD=
EXTT0=
EXTT1=
EXTT2=
EXTT3=
EXTT4=
EXTT5=
EXTT6=
EXTT7=
EXTT8=
EXTT9=
EXTT10=
PLAYORDER=
